<svg xmlns="http://www.w3.org/2000/svg" viewBox="0 0 128 128" width="128" height="128" role="img" aria-label="Polartech">
  <defs>
    <linearGradient id="bg" x1="0" y1="0" x2="1" y2="1">
      <stop offset="0" stop-color="#0a1c6e"/>
      <stop offset="1" stop-color="#05082e"/>
    </linearGradient>
    <linearGradient id="flake" x1="0" y1="0" x2="0" y2="1">
      <stop offset="0" stop-color="#eaf6ff"/>
      <stop offset="1" stop-color="#35bcff"/>
    </linearGradient>
  </defs>
  <rect x="4" y="4" width="120" height="120" rx="28" fill="url(#bg)"/>
  <g stroke="url(#flake)" stroke-width="4.2" stroke-linecap="round" fill="none">
    <g>
      <line x1="64" y1="64" x2="64" y2="22"/>
      <line x1="64" y1="32" x2="54" y2="23"/>
      <line x1="64" y1="32" x2="74" y2="23"/>
      <line x1="64" y1="45" x2="56" y2="38"/>
      <line x1="64" y1="45" x2="72" y2="38"/>
    </g>
    <g transform="rotate(60 64 64)">
      <line x1="64" y1="64" x2="64" y2="22"/>
      <line x1="64" y1="32" x2="54" y2="23"/>
      <line x1="64" y1="32" x2="74" y2="23"/>
      <line x1="64" y1="45" x2="56" y2="38"/>
      <line x1="64" y1="45" x2="72" y2="38"/>
    </g>
    <g transform="rotate(120 64 64)">
      <line x1="64" y1="64" x2="64" y2="22"/>
      <line x1="64" y1="32" x2="54" y2="23"/>
      <line x1="64" y1="32" x2="74" y2="23"/>
      <line x1="64" y1="45" x2="56" y2="38"/>
      <line x1="64" y1="45" x2="72" y2="38"/>
    </g>
    <g transform="rotate(180 64 64)">
      <line x1="64" y1="64" x2="64" y2="22"/>
      <line x1="64" y1="32" x2="54" y2="23"/>
      <line x1="64" y1="32" x2="74" y2="23"/>
      <line x1="64" y1="45" x2="56" y2="38"/>
      <line x1="64" y1="45" x2="72" y2="38"/>
    </g>
    <g transform="rotate(240 64 64)">
      <line x1="64" y1="64" x2="64" y2="22"/>
      <line x1="64" y1="32" x2="54" y2="23"/>
      <line x1="64" y1="32" x2="74" y2="23"/>
      <line x1="64" y1="45" x2="56" y2="38"/>
      <line x1="64" y1="45" x2="72" y2="38"/>
    </g>
    <g transform="rotate(300 64 64)">
      <line x1="64" y1="64" x2="64" y2="22"/>
      <line x1="64" y1="32" x2="54" y2="23"/>
      <line x1="64" y1="32" x2="74" y2="23"/>
      <line x1="64" y1="45" x2="56" y2="38"/>
      <line x1="64" y1="45" x2="72" y2="38"/>
    </g>
  </g>
  <circle cx="64" cy="64" r="5.5" fill="#eaf6ff"/>
</svg>
